<svg xmlns="http://www.w3.org/2000/svg" xmlns:xlink="http://www.w3.org/1999/xlink" width="838.7" height="878.2" viewBox="0 0 838.7 878.2">
  <defs>
    <style>
      .cls-1 {
        fill: url(#linear-gradient);
      }

      .cls-2 {
        fill: #1d1d1b;
      }

      .cls-3 {
        fill: #fff;
      }
    </style>
    <linearGradient id="linear-gradient" x1="252.53" y1="252.53" x2="827.47" y2="827.47" gradientTransform="translate(540 -223.7) rotate(45)" gradientUnits="userSpaceOnUse">
      <stop offset="0" stop-color="#032040"/>
      <stop offset="1" stop-color="#29abe2"/>
    </linearGradient>
  </defs>
  <g id="_19.99-a-month-plan" data-name="19.99-a-month-plan">
    <circle class="cls-1" cx="540" cy="540" r="406.5" transform="translate(-344.3 406.5) rotate(-45)"/>
  </g>
  <g id="_49.99-a-month-plan" data-name="49.99-a-month-plan">
    <g>
      <path class="cls-2" d="M637.6,1011.6H489.1V907.8H637.6Zm-139.2-9.2h130V917.1h-130Z" transform="translate(-120.6 -133.5)"/>
      <g>
        <g>
          <path class="cls-3" d="M418.6,671.6H708.1c.1-.1.2-.2.2-.3,45.2-62.4,87.2-149.6,87.2-242.5,0-128.2-103.9-232.2-232.1-232.2s-232.2,104-232.2,232.2c0,92.9,42.1,180.1,87.2,242.5C418.5,671.4,418.6,671.5,418.6,671.6Z" transform="translate(-120.6 -133.5)"/>
          <path class="cls-2" d="M710.5,676.2H416.3l-1.6-2.2c-32.9-45.5-88.1-137.9-88.1-245.2C326.6,298.2,432.8,192,563.4,192S800.1,298.2,800.1,428.8c0,107.3-55.1,199.7-88,245.2ZM421,667H705.8c32.3-45.2,85.1-134.7,85.1-238.2,0-125.5-102.1-227.5-227.5-227.5s-227.6,102-227.6,227.5C335.8,532.3,388.6,621.9,421,667Z" transform="translate(-120.6 -133.5)"/>
        </g>
        <path class="cls-2" d="M513.8,913.9c-.6-1.9-60.6-186.6-99.1-239.9-32.9-45.5-88.1-137.9-88.1-245.2C326.6,298.2,432.8,192,563.4,192v9.3c-125.5,0-227.6,102-227.6,227.5,0,104.7,54.1,195.2,86.4,239.8,39.3,54.5,98,234.8,100.4,242.4Z" transform="translate(-120.6 -133.5)"/>
        <path class="cls-2" d="M472.2,673.1c-19.7-45.3-52.7-137.4-52.7-244.3C419.5,298.2,484,192,563.4,192v9.3c-74.3,0-134.7,102-134.7,227.5,0,105.2,32.5,195.9,51.9,240.7Z" transform="translate(-120.6 -133.5)"/>
        <path class="cls-2" d="M529.8,672a1762.5,1762.5,0,0,1-17.5-243.2C512.3,314,530.2,192,563.4,192v9.3c-17.5,0-41.8,86.5-41.8,227.5A1745.6,1745.6,0,0,0,539,670.6Z" transform="translate(-120.6 -133.5)"/>
        <path class="cls-2" d="M596.9,672l-9.1-1.4a1744.2,1744.2,0,0,0,17.4-241.8c0-141-24.4-227.5-41.8-227.5V192c33.1,0,51,122,51,236.8A1746.5,1746.5,0,0,1,596.9,672Z" transform="translate(-120.6 -133.5)"/>
        <path class="cls-2" d="M654.6,673.1l-8.5-3.6c19.4-44.8,52-135.5,52-240.7,0-125.5-60.5-227.5-134.7-227.5V192c79.3,0,143.9,106.2,143.9,236.8C707.3,535.7,674.3,627.8,654.6,673.1Z" transform="translate(-120.6 -133.5)"/>
        <path class="cls-2" d="M612.9,913.9l-8.8-2.9c2.5-7.6,61.1-187.9,100.5-242.4,32.2-44.6,86.3-135.1,86.3-239.8,0-125.5-102.1-227.5-227.5-227.5V192c130.5,0,236.7,106.2,236.7,236.8,0,107.3-55.1,199.7-88,245.2C673.6,727.3,613.5,912,612.9,913.9Z" transform="translate(-120.6 -133.5)"/>
        <rect class="cls-2" x="289.4" y="532.9" width="306.8" height="9.23"/>
      </g>
      <g>
        <rect class="cls-2" x="271.9" y="531.5" width="341.8" height="12.77"/>
        <path class="cls-2" d="M738.9,682.3h-351v-22h351Zm-341.8-9.2H729.7v-3.6H397.1Z" transform="translate(-120.6 -133.5)"/>
      </g>
      <g>
        <rect class="cls-2" x="466" y="779" width="46.4" height="94.58"/>
        <path class="cls-2" d="M637.6,1011.6H582V907.8h55.6Zm-46.4-9.2h37.2V917.1H591.2Z" transform="translate(-120.6 -133.5)"/>
      </g>
      <g>
        <path class="cls-2" d="M586.6,912.4l38-241.1Z" transform="translate(-120.6 -133.5)"/>
        <rect class="cls-2" x="483.6" y="787.3" width="244.1" height="9.23" transform="translate(-391.5 1133.4) rotate(-81)"/>
      </g>
      <g>
        <path class="cls-2" d="M504.5,671.3l29,241.1Z" transform="translate(-120.6 -133.5)"/>
        <rect class="cls-2" x="514.4" y="670.4" width="9.2" height="242.87" transform="translate(-211.5 -65.8) rotate(-6.9)"/>
      </g>
      <path class="cls-2" d="M957.8,872H682.9l5.7-7.4c9.6-12.4,28.8-20.1,50.1-20.1a72.6,72.6,0,0,1,9.3.6c-.1-1.3-.1-2.5-.1-3.7a59.6,59.6,0,0,1,117.8-12.7,109.7,109.7,0,0,1,27.8-3.5c36.9,0,65.9,16.7,65.9,37.9a27.6,27.6,0,0,1-.7,5.4Zm-253.5-9.2H950.1c-.3-15.4-26.1-28.4-56.6-28.4a96.7,96.7,0,0,0-30,4.6l-5.4,1.7-.6-5.5a50.4,50.4,0,1,0-99.6,14.5l1,6.5-6.4-1.2a79.5,79.5,0,0,0-13.8-1.2C725.5,853.8,713.1,857.2,704.3,862.8Z" transform="translate(-120.6 -133.5)"/>
      <path class="cls-2" d="M395.6,776.9h-275l5.8-7.4c9.5-12.4,28.7-20.1,50.1-20.1,3.1,0,6.2.2,9.3.5-.1-1.2-.2-2.4-.2-3.6a59.6,59.6,0,0,1,117.8-12.8,109.7,109.7,0,0,1,27.8-3.5c37,0,65.9,16.7,65.9,38a21.5,21.5,0,0,1-.7,5.3ZM142,767.7H387.9c-.4-15.5-26.2-28.4-56.7-28.4a97.2,97.2,0,0,0-30,4.5l-5.3,1.8-.7-5.6a50.3,50.3,0,1,0-99.6,14.6l1.1,6.5-6.5-1.2a69.9,69.9,0,0,0-13.7-1.3C163.3,758.6,150.8,762,142,767.7Z" transform="translate(-120.6 -133.5)"/>
    </g>
  </g>
</svg>
