<svg id="_99-a-month-plan" data-name="99-a-month-plan" xmlns="http://www.w3.org/2000/svg" xmlns:xlink="http://www.w3.org/1999/xlink" width="1052.1" height="914.1" viewBox="0 0 1052.1 914.1">
  <defs>
    <style>
      .cls-1 {
        fill: url(#linear-gradient);
      }

      .cls-2 {
        fill: #fff;
      }

      .cls-3 {
        fill: #1d1d1b;
      }
    </style>
    <linearGradient id="linear-gradient" x1="216.8" y1="216.8" x2="863.2" y2="863.2" gradientTransform="translate(540 -223.7) rotate(45)" gradientUnits="userSpaceOnUse">
      <stop offset="0" stop-color="#4aafed"/>
      <stop offset="1" stop-color="#032040"/>
    </linearGradient>
  </defs>
  <g>
    <circle class="cls-1" cx="540" cy="540" r="457.1" transform="translate(-237.6 457.1) rotate(-45)"/>
    <g>
      <g>
        <path class="cls-2" d="M304.2,456.2a25.2,25.2,0,0,0,.6-4.7c0-20-29.8-36.2-66.6-36.2a109.7,109.7,0,0,0-34.2,5.2,59.8,59.8,0,0,0-119.1,7.4,53.6,53.6,0,0,0,.9,9.9,82.5,82.5,0,0,0-15.9-1.5c-22.3,0-41.4,8.1-50.5,19.9Z" transform="translate(-14 -82.9)"/>
        <path class="cls-3" d="M304.2,461.6H19.4a5.5,5.5,0,0,1-4.9-3,5.3,5.3,0,0,1,.6-5.7c10.5-13.6,31.5-22,54.8-22a79.8,79.8,0,0,1,9.7.5c-.1-1.2-.2-2.3-.2-3.5a65.3,65.3,0,0,1,128.9-14.4,121.2,121.2,0,0,1,29.9-3.7c40.4,0,72,18.3,72,41.7a25.5,25.5,0,0,1-.7,5.9A5.4,5.4,0,0,1,304.2,461.6ZM33.9,450.7H299.3c-.8-16.3-28.5-30-61.1-30a105.9,105.9,0,0,0-32.5,4.9,5.3,5.3,0,0,1-7.1-4.5,54.4,54.4,0,0,0-108.3,6.8,59.9,59.9,0,0,0,.8,9,5.4,5.4,0,0,1-6.3,6.2,82.5,82.5,0,0,0-14.9-1.3C56.2,441.8,43.3,445.1,33.9,450.7Z" transform="translate(-14 -82.9)"/>
      </g>
      <g>
        <path class="cls-2" d="M1060,843.8a25.2,25.2,0,0,0,.6-4.7c0-20-29.8-36.2-66.6-36.2a110.1,110.1,0,0,0-34.2,5.2,59.8,59.8,0,0,0-119.1,7.4,63.9,63.9,0,0,0,.9,9.9,82.5,82.5,0,0,0-15.9-1.5c-22.2,0-41.4,8.1-50.5,19.9Z" transform="translate(-14 -82.9)"/>
        <path class="cls-3" d="M1060,849.2H775.2a5.4,5.4,0,0,1-4.3-8.7c10.5-13.6,31.5-22,54.8-22a78.8,78.8,0,0,1,9.7.5c-.1-1.2-.1-2.3-.1-3.5a65.2,65.2,0,0,1,128.8-14.4,121.8,121.8,0,0,1,29.9-3.7c40.4,0,72,18.3,72,41.7a26.4,26.4,0,0,1-.7,6A5.5,5.5,0,0,1,1060,849.2ZM789.7,838.3h265.4c-.8-16.3-28.5-30-61.1-30a106.4,106.4,0,0,0-32.5,4.9,5.6,5.6,0,0,1-4.6-.5,5.4,5.4,0,0,1-2.5-4,54.4,54.4,0,0,0-108.3,6.8,59.9,59.9,0,0,0,.8,9,5.2,5.2,0,0,1-1.5,4.7,5.3,5.3,0,0,1-4.8,1.5,82.5,82.5,0,0,0-14.9-1.3C812,829.4,799.1,832.7,789.7,838.3Z" transform="translate(-14 -82.9)"/>
      </g>
      <g>
        <polygon class="cls-2" points="560.8 423.8 324.7 268.4 426.2 234.7 717 371.9 560.8 423.8"/>
        <path class="cls-3" d="M574.8,512.1a5.4,5.4,0,0,1-3-.8L335.7,355.9a5.4,5.4,0,0,1-2.4-5.3,5.3,5.3,0,0,1,3.6-4.4l101.6-33.8a5.6,5.6,0,0,1,4,.3L733.3,449.9a5.4,5.4,0,1,1-4.7,9.8L439.8,323.5,351,353,577.8,502.2a5.4,5.4,0,0,1-3,9.9Z" transform="translate(-14 -82.9)"/>
      </g>
      <g>
        <path class="cls-2" d="M969.1,375.7,241.4,617.5l-80.9-38.2L79.7,606.2,186.1,697l2.3,6.8,175.7-20.6A755.3,755.3,0,0,0,513.3,650l492.6-163.7a58.4,58.4,0,0,0,36.9-73.7h0A58.2,58.2,0,0,0,969.1,375.7Z" transform="translate(-14 -82.9)"/>
        <path class="cls-3" d="M188.4,709.3a5.6,5.6,0,0,1-5.2-3.7l-1.8-5.5L76.2,610.3a5.4,5.4,0,0,1-1.8-5.2A5.4,5.4,0,0,1,78,601l80.7-26.8a5.3,5.3,0,0,1,4.1.2l78.9,37.3L967.4,370.5h0a63.7,63.7,0,1,1,40.2,120.9L515,655.1a757.9,757.9,0,0,1-150.3,33.5L189,709.3Zm-97.8-101,99,84.5a6.2,6.2,0,0,1,1.7,2.5l.8,2.6,171.3-20.1a757,757,0,0,0,148.1-33l492.7-163.7a52.9,52.9,0,0,0-33.4-100.3L243.1,622.7a5.8,5.8,0,0,1-4.1-.3l-78.9-37.2Z" transform="translate(-14 -82.9)"/>
      </g>
      <g>
        <polygon class="cls-2" points="499.7 795.1 601.2 761.3 788 409.7 618.8 465.9 499.7 795.1"/>
        <path class="cls-3" d="M513.7,883.4a5.1,5.1,0,0,1-3.9-1.6,5.2,5.2,0,0,1-1.2-5.7L627.7,547a5.1,5.1,0,0,1,3.4-3.3l169.2-56.2a5.1,5.1,0,0,1,5.8,1.6,5.5,5.5,0,0,1,.7,6.1L620,846.8a5.7,5.7,0,0,1-3.1,2.6L515.4,883.2ZM637,553.2,522.6,869.3l88.8-29.5L790.8,502.1Z" transform="translate(-14 -82.9)"/>
      </g>
      <path class="cls-3" d="M408.8,627.5a5.4,5.4,0,0,1-5.1-3.8,5.3,5.3,0,0,1,3.4-6.8L916.2,447.4a5.6,5.6,0,0,1,6.9,3.4,5.5,5.5,0,0,1-3.5,6.9l-509,169.5A5.7,5.7,0,0,1,408.8,627.5Z" transform="translate(-14 -82.9)"/>
    </g>
  </g>
</svg>
