<?xml version="1.0" encoding="utf-8"?>
<!-- Generator: Adobe Illustrator 25.4.1, SVG Export Plug-In . SVG Version: 6.00 Build 0)  -->
<svg version="1.1" id="Layer_1" xmlns="http://www.w3.org/2000/svg" xmlns:xlink="http://www.w3.org/1999/xlink" x="0px" y="0px"
	 viewBox="0 0 1080 1080" style="enable-background:new 0 0 1080 1080;" xml:space="preserve">
<style type="text/css">
	.st0{fill:#03203F;}
	.st1{fill:#E5E5E5;}
	.st2{fill:#7EC9E0;}
</style>
<g>
	
		<image style="overflow:visible;opacity:0.88;enable-background:new    ;" width="980" height="980" xlink:href="9501EBD403159BA4.png"  transform="matrix(1 0 0 1 50 50)">
	</image>
	<g>
		<path class="st0" d="M982,1014.6H98c-18,0-32.6-14.6-32.6-32.6V98C65.4,80,80,65.4,98,65.4h884c18,0,32.6,14.6,32.6,32.6v884
			C1014.6,1000,1000,1014.6,982,1014.6z"/>
	</g>
</g>
<g>
	<g>
		<g>
			
				<image style="overflow:visible;opacity:0.88;enable-background:new    ;" width="663" height="880" xlink:href="9501EBD403159BA5.png"  transform="matrix(1 0 0 1 168 106)">
			</image>
			<g>
				<path class="st1" d="M823.5,181.8c-52.1-36.2-112.7-59.2-176.2-66.9c-103.7-12.5-206.1,16.1-288.2,80.6S224.9,352.6,212.4,456.3
					c-10.8,89.8,9.7,180,58,256.1l-80.4,209c-4.3,11.9-22,46.9-13.1,55.8c6.2,6.2,28.9-4,40.6-7.9c3.5-1.2,15-6.7,18.6-8L477.2,874
					c24.8,8.2,50.5,14,76.6,17.1c15.8,1.9,31.6,3.4,47.3,2.8c135.8-5,203.3-112.7,221.3-146.6c1.1-2-1.5-4-3.2-2.5
					C749,808.2,655.8,838,561.6,826.6c-25.1-3-49.8-8.9-73.4-17.6c-7.2-2.6-15-2.6-22.2,0l-127,45.9c16.1-8.7,37.4-23,64.7-42.5
					c42.3-30.2,116.1-116.1,134-142.2c23.3-34,19.5,24.5,21.5,58.9c1.6,26.6,11.8,100.9,19.5,4.8c2.6-32.6,10.3-185.5,10.3-195.4
					s-7-17.4-25-9.1c-40.9,18.7-97.9,49.3-179.9,119.9c-68.2,58.7,36.5-5.5,104.8-42.2c68.2-36.7,13.9,45.7-35.8,100.1
					c-31.2,34.1-122.5,91.4-151.7,109.3l35.6-97.2c3.6-10,2.2-21.1-3.9-29.8c-45.9-65.7-65.9-145.8-56.3-225.4
					c10.4-86.4,53.9-163.6,122.4-217.4c1.9-1.5,3.8-3,5.7-4.4c82.8-63.2,188.1-89.4,291.1-74c46.8,7,100.4,15.6,125,19.6
					C824.6,188.3,826.4,183.8,823.5,181.8z"/>
			</g>
		</g>
	</g>
	<g>
		<g>
			
				<image style="overflow:visible;opacity:0.5;enable-background:new    ;" width="412" height="391" xlink:href="9501EBD403159BA3.png"  transform="matrix(1 0 0 1 426 284)">
			</image>
			<g>
				<path class="st2" d="M492.1,463.8l-4.1-0.9c-2.6-12,1.8-24.6,12.1-31.2c3.4-2.2,7.2-3.5,11.2-4.1c-0.4-1-0.7-2.1-1-3.1
					c0.6-0.3,1.1-0.9,1.2-1.6c0.3-1.3-0.6-2.7-1.9-3h-0.1c-0.9-9.9,3.4-19.5,11.8-24.9c2.1-1.3,4.3-2.3,6.7-3l1.9,3
					c0.7,1.2,2.3,1.5,3.4,0.8s1.5-2.3,0.8-3.4l-1.8-2.7c1.9-7.4,6.4-13.7,12.6-17.7c7-4.5,15.5-5.7,23.5-3.6l3.5,5.4
					c0.7,1.2,2.3,1.5,3.4,0.8c1-0.7,1.4-1.9,1-3c0.8,0.4,1.6,0.9,2.3,1.4c1.7-5.4,5.1-9.9,9.8-12.9c5.1-3.3,11.1-4.3,16.8-3.3
					l-0.5,2.4c-0.1,0.7,0,1.3,0.3,1.9c0.3,0.5,0.9,0.9,1.6,1.1c1.3,0.3,2.7-0.6,3-1.9l0.5-2.2c4.3,1.6,8.3,4.4,11.5,8.2
					c1.2-1.4,2.6-2.7,4.2-3.7c7.9-5.1,18.3-3.5,25.2,3.1l-1.1,5c-0.1,0.7,0,1.3,0.3,1.9c-4.9-7.7-14.7-10.3-21.8-5.8
					c-2,1.3-3.5,3-4.7,5c-0.4,0.8-1.2,1.3-2.1,1.3c-0.9,0-1.7-0.4-2.2-1.1l-0.1-0.1c-6.4-10-19.1-13.4-28.3-7.5
					c-4.6,2.9-7.6,7.7-8.4,13.4c-0.1,0.9-0.7,1.6-1.6,2c-0.8,0.3-1.8,0.2-2.5-0.4c-9.2-7.7-21.7-8.9-31-2.9
					c-6.1,3.9-10,10.2-11.1,17.8c-0.2,1.2-1.2,2.1-2.4,2.1c-3.6,0.1-7.2,1.2-10.2,3.2c-9.4,6-12.4,18.8-6.8,29.6
					c0.4,0.8,0.4,1.7-0.1,2.4c-0.5,0.7-1.3,1.2-2.1,1.2c-4.4,0-8.6,1.2-12.2,3.5c-9.5,6.1-12.9,18.3-9,29.3
					C493.5,464.5,492.9,464,492.1,463.8z M567.6,478.7l-14.4-22.4l60.2-38.6l14.4,22.4c0.7,1.2,2.3,1.5,3.4,0.8l56.5-36.2
					c0.7-0.4,1.1-1.2,1.1-2c0-0.3,0.2-7-3.8-14.8c-5.2-9.9-15.1-18.6-28.1-14.2c-0.3-0.5-0.6-1.1-0.9-1.5c-0.3-0.6-0.7-1.2-1-1.7
					l-0.2,1c-0.3,1.3-1.6,2.2-3,1.9c-0.7-0.1-1.2-0.6-1.6-1.1c0.4,0.7,0.9,1.5,1.4,2.4c2,3.4,3.1,5.3,5.3,4.3
					c13.4-5.7,21.4,7.2,23.5,11.3c2.4,4.7,3,9,3.2,11l-53.2,34.1L616.3,413c-0.7-1.2-2.3-1.5-3.4-0.8l-64.4,41.2
					c-1.2,0.7-1.5,2.3-0.8,3.4l14.4,22.4l-54.3,34.7c-10.7-7.3-12.9-16.9-13.2-22.2c-0.5-6.9,1.8-12.2,4.2-14.1
					c0.5-0.4,0.8-1,0.9-1.7c0-0.5-0.1-1.1-0.4-1.6c-0.1-0.1-0.1-0.2-0.2-0.3c-0.9-1.1-1.7-2.1-2.4-3.2c-1.1-1.7-2-3.6-2.7-5.4
					c0.1,0.4,0.1,0.8,0,1.2c-0.3,1.3-1.6,2.2-3,1.9l-1.3-0.3c0.7,1.8,1.7,3.6,2.8,5.3c0.4,0.7,0.9,1.3,1.4,2
					c-3.1,3.8-4.7,10-4.2,16.5c0.4,5.6,2.2,10.8,5.1,15.5c2.9,4.5,6.8,8.4,11.7,11.4c0.8,0.5,1.8,0.5,2.7,0l57.7-37
					C568,481.4,568.3,479.9,567.6,478.7z M675.5,614.3c0.3-0.1,0.5-0.1,0.8-0.2c-1.7-0.4-3.4-0.9-5.1-1.6c-1.2-0.5-2.4-1.1-3.6-1.8
					c-0.6-0.3-1.3-0.4-1.9-0.3c-0.6,0.2-1.2,0.6-1.5,1.2c-1.5,2.6-6.2,5.8-13.2,6.6c-5.2,0.6-15.1,0.1-24.2-9.1l24.7-59.5l24.6,10.2
					c1.3,0.5,2.7-0.1,3.3-1.3l29.3-70.6c0.5-1.3-0.1-2.7-1.3-3.3l-24.6-10.2l24.2-58.3c2-0.2,6.4-0.4,11.4,1.2
					c4.4,1.4,18.5,7,15.2,21.1c-0.6,2.4,1.4,3.2,5.1,4.5c0.9,0.3,1.9,0.7,2.6,1c8.5,3.5,12.7,12.7,9.5,20.4c-0.9,2.2-2.3,4-4.1,5.5
					c-0.7,0.6-1,1.4-0.9,2.3s0.7,1.6,1.5,1.9l0.2,0.1c5,2.1,8.9,5.7,11.2,10c0-1,0.5-2,1.5-2.4l2.3-0.9c-2.4-3.9-5.8-7.3-10-9.7
					c1.2-1.5,2.2-3.1,2.9-4.8c3.6-8.8,0.2-18.8-7.7-24.4l-4.8,2c-0.6,0.3-1.3,0.2-1.9,0c-0.6-0.2-1.1-0.7-1.3-1.4
					c-0.5-1.3,0.1-2.7,1.4-3.3l0.9-0.4c-0.5-0.2-1-0.4-1.5-0.6s-1.1-0.4-1.6-0.6c2-13.5-8.3-21.8-19-25.1
					c-8.3-2.6-14.9-1.2-15.2-1.1c-0.8,0.2-1.5,0.7-1.8,1.5l-25.7,61.9c-0.5,1.3,0.1,2.7,1.3,3.3l24.6,10.2l-27.4,66l-24.6-10.2
					c-1.3-0.5-2.7,0.1-3.3,1.3l-26.3,63.3c-0.4,0.9-0.2,1.9,0.4,2.6c3.9,4.3,8.4,7.5,13.3,9.5c5.1,2.1,10.6,2.9,16.2,2.3
					c6.5-0.7,12.3-3.4,15.5-7.1c0.7,0.4,1.5,0.7,2.2,1c1.8,0.7,3.6,1.3,5.4,1.7l-0.5-1.3C673.6,616.3,674.2,614.8,675.5,614.3z
					 M760.3,486.2c-0.2-0.1-0.5-0.2-0.7-0.4c2,4.7,2.3,10,0.3,14.9c-2.1,5-6.2,8.8-11.7,10.6c-0.9,0.3-1.5,1-1.6,1.9
					c-0.2,0.9,0.2,1.8,0.8,2.4c9.2,7.7,12.5,19.8,8.3,30c-2.8,6.7-8.3,11.7-15.6,14.1c-1.2,0.4-1.9,1.5-1.7,2.7c0,0.2,0,0.4,0.1,0.7
					l0,0c0.5-1.3,2-1.9,3.3-1.3l3.3,1.4c6.9-3.2,12.4-8.7,15.2-15.5c3.2-7.7,2.9-16.3-0.6-23.8l-6.2-2.6c-1.3-0.5-1.9-2-1.3-3.3
					c0.5-1.2,1.9-1.8,3.1-1.4c-0.6-0.7-1.1-1.4-1.8-2c5-2.6,8.8-6.7,11-11.9c2.4-5.7,2.3-11.9,0.2-17.4l-2.5,1
					C761.5,486.5,760.9,486.5,760.3,486.2z M738.7,565.2c0,2.7-0.5,5.3-1.5,7.8c-4.3,10.4-16.3,15.5-27.9,11.9
					c-0.8-0.3-1.7-0.1-2.4,0.5c-0.6,0.6-1,1.5-0.8,2.3c0.8,4.3,0.3,8.7-1.3,12.7c-4.3,10.4-15.7,15.9-27.2,14c0.5,0.3,1,0.7,1.2,1.3
					l1.7,4c12.4,0.6,24.1-6,28.9-17.4c1.5-3.7,2.2-7.7,2-11.8c1,0.2,1.9,0.3,2.9,0.4c0.2-0.7,0.7-1.3,1.4-1.6
					c1.3-0.5,2.7,0.1,3.3,1.4l0.1,0.2c10-0.8,18.9-6.7,22.7-16c0.9-2.3,1.5-4.7,1.8-7.1l-3.6-1.5
					C739.3,566.1,738.9,565.7,738.7,565.2z M624,515.4l-9.5-5.4l2.1-12.4l-18.3-10.4l-9.6,8.1l-9.3-5.3l43-35.1l10.2,5.8L624,515.4z
					 M618.2,487.9l3.5-20.6l-15.9,13.4L618.2,487.9z M655.5,473.7l-25.7,45l8.9,5.1l25.7-45L655.5,473.7z M650.4,372.3
					c0.3,0.5,0.9,0.9,1.6,1.1c1.3,0.3,2.7-0.6,3-1.9l0.2-1l8-36.5c0.1-0.6,0-1.3-0.3-1.9l-12.5-19.6c-0.1-0.2-0.2-0.3-0.3-0.4
					c-0.6,0.6-1.3,1.1-2,1.6c-0.7,0.4-1.4,0.8-2.1,1.1c0.1,0.1,0.1,0.3,0.2,0.4l12,18.7l-6.9,31.4l-1.1,5
					C649.9,371.1,650.1,371.8,650.4,372.3z M648,313.9c-0.7,0.4-1.4,0.8-2.1,1.1c-5.2,2-11.2,0.2-14.3-4.7
					c-3.5-5.5-1.9-12.9,3.6-16.5c5.5-3.5,12.9-1.9,16.4,3.6c3.1,4.8,2.3,11-1.6,14.8C649.4,312.8,648.7,313.4,648,313.9z
					 M645.3,309.7c3.2-2.1,4.2-6.3,2.1-9.6c-2.1-3.2-6.3-4.2-9.6-2.1c-3.2,2.1-4.2,6.3-2.1,9.6C637.8,310.8,642.1,311.7,645.3,309.7
					z M605.2,360.8c0.3,0.5,0.9,0.9,1.6,1.1c1.3,0.3,2.7-0.6,3-1.9l0.5-2.2l5.8-26.6c0.1-0.6,0-1.3-0.3-1.9l-11.6-18.1l-0.1-0.1
					c-0.6,0.6-1.2,1.1-1.9,1.6s-1.5,0.8-2.2,1.1c0,0,0,0.1,0.1,0.1l11,17.2l-5.6,25.4l-0.5,2.4C604.7,359.6,604.9,360.3,605.2,360.8
					z M602.1,312.7c-0.7,0.5-1.5,0.8-2.2,1.1c-5.1,1.9-11.1,0.1-14.2-4.7c-3.5-5.5-1.9-12.9,3.6-16.5c5.5-3.5,12.9-1.9,16.5,3.6
					c3.1,4.8,2.3,11-1.7,14.9C603.5,311.7,602.8,312.2,602.1,312.7z M599.4,308.5c3.2-2.1,4.2-6.3,2.1-9.6c-2.1-3.2-6.3-4.2-9.6-2.1
					c-3.2,2.1-4.2,6.3-2.1,9.6C591.9,309.6,596.2,310.6,599.4,308.5z M575.5,374.4c1-0.7,1.4-1.9,1-3c-0.1-0.1-0.1-0.3-0.2-0.4
					L547,325.3c-0.6,0.6-1.2,1.1-2,1.6c-0.7,0.5-1.5,0.8-2.2,1.1l29.2,45.6C572.8,374.8,574.3,375.1,575.5,374.4z M545.1,326.9
					c-0.7,0.5-1.5,0.8-2.2,1.1c-5.1,1.9-11.1,0.1-14.2-4.7c-3.5-5.5-1.9-12.9,3.6-16.4s12.9-1.9,16.5,3.6c3.1,4.8,2.3,11-1.6,14.9
					C546.4,325.9,545.8,326.4,545.1,326.9z M542.4,322.7c3.2-2.1,4.2-6.3,2.1-9.6c-2.1-3.2-6.3-4.2-9.6-2.1
					c-3.2,2.1-4.2,6.3-2.1,9.6C534.9,323.8,539.2,324.7,542.4,322.7z M494,466.8c0.1-0.4,0.1-0.8,0-1.2c0-0.2-0.1-0.3-0.2-0.4
					c-0.3-0.7-0.9-1.2-1.7-1.3L488,463l-23.2-5.1l-12-18.7c-0.1-0.1-0.2-0.3-0.3-0.4c-0.6,0.5-1.2,1-1.8,1.5
					c-0.7,0.5-1.5,0.8-2.3,1.1c0.1,0.2,0.1,0.3,0.2,0.5l12.5,19.6c0.4,0.6,0.9,0.9,1.6,1.1l27,5.9l1.3,0.3
					C492.4,469,493.7,468.1,494,466.8z M450.7,440.2c-0.7,0.5-1.5,0.8-2.3,1.1c-5.1,1.9-11.1,0.1-14.2-4.7
					c-3.5-5.5-1.9-12.9,3.6-16.5c5.5-3.5,12.9-1.9,16.5,3.6c3.1,4.9,2.2,11.1-1.8,15C452,439.3,451.3,439.8,450.7,440.2z
					 M447.5,436.5c3.2-2.1,4.2-6.3,2.1-9.6c-2.1-3.2-6.3-4.2-9.6-2.1c-3.2,2.1-4.2,6.3-2.1,9.6C439.9,437.7,444.2,438.6,447.5,436.5
					z M511.6,422.9c0.3-1.3-0.6-2.7-1.9-3h-0.1l-27.7-6.1l-11-17.2l-0.1-0.1c-0.6,0.6-1.2,1.1-1.9,1.6c-0.7,0.5-1.5,0.8-2.2,1.1
					c0,0,0,0.1,0.1,0.1l11.6,18.1c0.4,0.6,0.9,0.9,1.6,1.1l28.8,6.3c0.6,0.1,1.2,0,1.8-0.3C510.9,424.2,511.4,423.6,511.6,422.9z
					 M468.8,398.1c-0.7,0.5-1.5,0.8-2.2,1.1c-5.1,1.9-11.1,0.1-14.2-4.7c-3.5-5.5-1.9-12.9,3.6-16.5c5.5-3.5,12.9-1.9,16.5,3.6
					c3.1,4.8,2.3,11-1.7,14.9C470.1,397.1,469.5,397.6,468.8,398.1z M466.1,393.9c3.2-2.1,4.2-6.3,2.1-9.6c-2.1-3.2-6.3-4.2-9.6-2.1
					c-3.2,2.1-4.2,6.3-2.1,9.6C458.6,395,462.9,395.9,466.1,393.9z M533.4,395.7c1.2-0.7,1.5-2.3,0.8-3.4l-26.7-41.7
					c-0.6,0.6-1.2,1.1-2,1.6c-0.7,0.5-1.5,0.8-2.2,1.1L530,395C530.7,396.1,532.3,396.5,533.4,395.7z M505.5,352.2
					c-0.7,0.5-1.5,0.8-2.2,1.1c-5.1,1.9-11.1,0.1-14.2-4.7c-3.5-5.5-1.9-12.9,3.6-16.4s12.9-1.9,16.5,3.6c3.1,4.8,2.3,11-1.6,14.9
					C506.9,351.2,506.2,351.7,505.5,352.2z M502.8,348c3.2-2.1,4.2-6.3,2.1-9.6c-2.1-3.2-6.3-4.2-9.6-2.1c-3.2,2.1-4.2,6.3-2.1,9.6
					C495.3,349.1,499.6,350.1,502.8,348z M739.7,442.4c0.3,0.6,0.8,1.1,1.3,1.4c0.6,0.2,1.3,0.3,1.9,0l4.8-2l29.7-12.3l20.5,8.5
					c0.1,0.1,0.3,0.1,0.5,0.1c0.2-0.8,0.4-1.5,0.7-2.2c0.3-0.8,0.8-1.5,1.2-2.2c-0.1-0.1-0.3-0.2-0.5-0.2l-21.5-8.9
					c-0.6-0.3-1.3-0.3-1.9,0l-34.5,14.3l-0.9,0.4C739.7,439.7,739.1,441.1,739.7,442.4z M799,435.9c0.3-0.8,0.8-1.5,1.2-2.2
					c3.1-4.5,9.1-6.4,14.3-4.2c6.1,2.5,9,9.5,6.4,15.6c-2.5,6.1-9.5,9-15.6,6.4c-5.3-2.2-8.2-7.9-7.1-13.3
					C798.5,437.4,798.7,436.6,799,435.9z M803.6,437.8c-1.5,3.5,0.2,7.6,3.7,9c3.5,1.5,7.6-0.2,9.1-3.7s-0.2-7.6-3.7-9.1
					C809.2,432.6,805.1,434.3,803.6,437.8z M758.8,484c0,0.3,0.1,0.6,0.2,0.8c0.2,0.4,0.4,0.7,0.7,0.9c0.2,0.2,0.4,0.3,0.7,0.4
					c0.6,0.2,1.3,0.3,1.9,0l2.5-1l23.8-9.8l18.9,7.8h0.1c0.1-0.8,0.4-1.6,0.7-2.4s0.7-1.5,1.2-2.2c0,0-0.1,0-0.1-0.1l-19.8-8.2
					c-0.6-0.3-1.3-0.3-1.9,0l-25,10.3l-2.3,0.9C759.3,482,758.7,483,758.8,484z M808.2,480.8c0.3-0.8,0.7-1.5,1.2-2.2
					c3.1-4.5,9.1-6.4,14.4-4.2c6.1,2.5,9,9.5,6.4,15.6c-2.5,6.1-9.5,9-15.6,6.4c-5.3-2.2-8.1-7.8-7.1-13.2
					C807.7,482.4,807.9,481.6,808.2,480.8z M812.8,482.7c-1.5,3.5,0.2,7.6,3.7,9c3.5,1.5,7.6-0.2,9.1-3.7s-0.2-7.6-3.7-9.1
					C818.3,477.5,814.3,479.2,812.8,482.7z M752.2,517.9c-0.5,1.3,0.1,2.7,1.3,3.3l50.1,20.8c0.1-0.8,0.4-1.6,0.7-2.4
					c0.3-0.8,0.7-1.5,1.2-2.2l-50.1-20.8h-0.1C754,516,752.7,516.6,752.2,517.9z M804.3,539.5c0.3-0.8,0.7-1.5,1.2-2.2
					c3.1-4.5,9.1-6.4,14.4-4.2c6.1,2.5,9,9.5,6.4,15.6c-2.5,6.1-9.5,8.9-15.6,6.4c-5.3-2.2-8.1-7.8-7.1-13.2
					C803.7,541.1,804,540.3,804.3,539.5z M808.9,541.4c-1.5,3.5,0.2,7.6,3.7,9c3.5,1.5,7.6-0.2,9.1-3.7s-0.2-7.6-3.7-9.1
					C814.4,536.2,810.3,537.9,808.9,541.4z M677.5,614.4c-0.4-0.2-0.8-0.3-1.3-0.2c-0.3,0-0.5,0.1-0.8,0.2c-1.3,0.5-1.9,2-1.4,3.3
					l0.6,1.3l10.5,25.5c0.3,0.6,0.7,1.1,1.3,1.4l21.5,8.9c0.2,0.1,0.3,0.1,0.5,0.1c0.1-0.8,0.4-1.6,0.7-2.5c0.3-0.7,0.7-1.4,1.1-2.1
					c-0.1-0.1-0.3-0.2-0.4-0.2l-20.5-8.5l-9-21.8l-1.7-4C678.5,615.1,678.1,614.6,677.5,614.4z M709.3,652.3
					c0.3-0.7,0.7-1.4,1.1-2.1c3.1-4.6,9.1-6.6,14.4-4.4c6.1,2.5,9,9.5,6.4,15.6s-9.5,9-15.6,6.4c-5.3-2.2-8.1-7.7-7.2-13.1
					C708.7,653.9,708.9,653.1,709.3,652.3z M713.9,654.2c-1.5,3.5,0.2,7.6,3.7,9c3.5,1.5,7.6-0.2,9.1-3.7s-0.2-7.6-3.7-9.1
					C719.4,649,715.3,650.7,713.9,654.2z M715.6,589.3c-0.7,0.3-1.2,0.9-1.4,1.6c-0.2,0.5-0.2,1.1,0.1,1.7l11.3,27.3
					c0.3,0.6,0.7,1.1,1.3,1.4l19.8,8.2h0.1c0.1-0.8,0.4-1.6,0.7-2.4c0.3-0.8,0.7-1.5,1.2-2.2c0,0-0.1,0-0.1-0.1l-18.9-7.8L719,590.9
					l-0.1-0.2C718.3,589.4,716.9,588.8,715.6,589.3z M747.6,627.1c0.3-0.8,0.7-1.5,1.2-2.2c3.1-4.5,9.1-6.4,14.4-4.2
					c6.1,2.5,9,9.5,6.4,15.6c-2.5,6.1-9.5,9-15.6,6.4c-5.3-2.2-8.1-7.8-7.1-13.2C747,628.7,747.2,627.9,747.6,627.1z M752.2,629
					c-1.5,3.5,0.2,7.6,3.7,9c3.5,1.5,7.6-0.2,9.1-3.7s-0.2-7.6-3.7-9.1C757.7,623.8,753.6,625.4,752.2,629z M787.5,580.6l-45.7-19
					c-1.3-0.5-2.7,0.1-3.3,1.3l0,0c-0.3,0.7-0.2,1.5,0.1,2.1c0.3,0.5,0.7,0.9,1.2,1.1l45.7,19c0.1-0.8,0.4-1.6,0.7-2.4
					C786.6,582.1,787,581.3,787.5,580.6z M808.3,592c-2.5,6.1-9.5,9-15.6,6.4c-5.3-2.2-8.1-7.8-7.1-13.2c0.1-0.8,0.4-1.6,0.7-2.4
					c0.3-0.8,0.7-1.5,1.2-2.2c3.1-4.5,9.1-6.4,14.4-4.2C807.9,578.9,810.8,585.9,808.3,592z M800.8,593.2c2.8-2.6,3.1-6.9,0.5-9.8
					c-2.6-2.8-6.9-3.1-9.8-0.5c-2.8,2.5-3.1,6.9-0.5,9.8C793.6,595.5,798,595.8,800.8,593.2z"/>
			</g>
		</g>
	</g>
</g>
</svg>
