<svg id="_299-a-month-plan" data-name="299-a-month-plan" xmlns="http://www.w3.org/2000/svg" xmlns:xlink="http://www.w3.org/1999/xlink" width="850.8" height="970" viewBox="0 0 850.8 970">
  <defs>
    <style>
      .cls-1 {
        fill: url(#_ÂÁ_Ï_ÌÌ_È_ËÂÌÚ_5);
      }

      .cls-2 {
        fill: #fff;
      }

      .cls-3 {
        fill: #1d1d1b;
      }
    </style>
    <linearGradient id="_ÂÁ_Ï_ÌÌ_È_ËÂÌÚ_5" data-name="¡ÂÁ˚ÏˇÌÌ˚È „‡‰ËÂÌÚ 5" x1="124.6" y1="124.6" x2="726.22" y2="726.22" gradientUnits="userSpaceOnUse">
      <stop offset="0" stop-color="#27ccd4"/>
      <stop offset="1" stop-color="#2a3d9a"/>
    </linearGradient>
  </defs>
  <g>
    <circle class="cls-1" cx="425.4" cy="425.4" r="425.4"/>
    <g>
      <g>
        <path class="cls-2" d="M540,133.7l-62.1,70.6a271.1,271.1,0,0,0-65.6,211l15.5,130.6,22.8,15.9a62.8,62.8,0,0,1,27,51.6V713H602.4V613.4a62.8,62.8,0,0,1,27-51.6l22.8-15.9,15.5-130.6a271.1,271.1,0,0,0-65.6-211Z" transform="translate(-114.6 -55)"/>
        <path class="cls-3" d="M608.3,719H471.7V613.4a57.1,57.1,0,0,0-24.5-46.8l-25-17.3L406.4,416a277.5,277.5,0,0,1,67-215.6L540,124.7l66.6,75.7a277.5,277.5,0,0,1,67,215.6L657.8,549.3l-25,17.3a57.1,57.1,0,0,0-24.5,46.8ZM483.6,707H596.4V613.4A68.7,68.7,0,0,1,626,556.9l20.6-14.3,15.2-128a265,265,0,0,0-64.2-206.3L540,142.7l-57.6,65.6a265.4,265.4,0,0,0-64.2,206.3l15.2,128L454,556.9a68.7,68.7,0,0,1,29.6,56.5Z" transform="translate(-114.6 -55)"/>
      </g>
      <g>
        <path class="cls-2" d="M427.8,545.9l-48.3,62a51.5,51.5,0,0,0-8.3,47.9l56.6,170.1L477.6,713V613.4a62.8,62.8,0,0,0-27-51.6Z" transform="translate(-114.6 -55)"/>
        <path class="cls-3" d="M427,842.5,365.6,657.7a57.2,57.2,0,0,1,9.2-53.5l51.8-66.4L454,556.9a68.7,68.7,0,0,1,29.6,56.5V714.3Zm2.1-288.4-44.9,57.4a45.5,45.5,0,0,0-7.3,42.4l51.7,155.5,43.1-97.7V613.4a57.1,57.1,0,0,0-24.5-46.8Z" transform="translate(-114.6 -55)"/>
      </g>
      <g>
        <path class="cls-2" d="M652.2,545.9l48.3,62a51.5,51.5,0,0,1,8.3,47.9L652.2,825.9,602.4,713V613.4a62.8,62.8,0,0,1,27-51.6Z" transform="translate(-114.6 -55)"/>
        <path class="cls-3" d="M653,842.5,596.4,714.3V613.4A68.7,68.7,0,0,1,626,556.9l27.4-19.1,51.8,66.4a57.2,57.2,0,0,1,9.2,53.5ZM608.3,711.7l43.1,97.7,51.7-155.5a45.5,45.5,0,0,0-7.3-42.4l-44.9-57.4-18.1,12.5a57.1,57.1,0,0,0-24.5,46.8Z" transform="translate(-114.6 -55)"/>
      </g>
      <g>
        <path class="cls-2" d="M580.3,393.1a40.5,40.5,0,1,1-40.4-40.5A40.4,40.4,0,0,1,580.3,393.1Z" transform="translate(-114.6 -55)"/>
        <path class="cls-3" d="M539.9,439.5a46.5,46.5,0,1,1,46.4-46.4A46.5,46.5,0,0,1,539.9,439.5Zm0-80.9a34.5,34.5,0,1,0,34.5,34.5A34.4,34.4,0,0,0,539.9,358.6Z" transform="translate(-114.6 -55)"/>
      </g>
      <g>
        <path class="cls-2" d="M560.5,489.3a20.6,20.6,0,1,1-20.6-20.7A20.6,20.6,0,0,1,560.5,489.3Z" transform="translate(-114.6 -55)"/>
        <path class="cls-3" d="M539.9,515.8a26.6,26.6,0,1,1,26.5-26.5A26.6,26.6,0,0,1,539.9,515.8Zm0-41.2a14.7,14.7,0,1,0,14.6,14.7A14.7,14.7,0,0,0,539.9,474.6Z" transform="translate(-114.6 -55)"/>
      </g>
      <g>
        <path class="cls-2" d="M554.4,767l-23.2,17.6c-33.9,25.9-51.7,67.3-42.9,106.6,9.5,42.5,1.6,87-24.9,121.6,0,0,95.7-33.5,79-118.9,0,0,38.9,15.9,44.7,74,0,0,27.2-43.2,21.2-95S571.1,820.2,554.4,767Z" transform="translate(-114.6 -55)"/>
        <path class="cls-3" d="M446.5,1025l12.2-15.9c24.6-32,33.2-74.5,23.8-116.5s8.6-84.9,45.1-112.7l29.9-22.8,2.6,8.1c7.3,23.5,17.5,36.2,27.4,48.4,12,15,23.4,29,26.7,58.7,6.1,53.2-20.9,96.9-22,98.7l-9.3,14.7-1.7-17.2C577.6,932.6,561,914,550,905.6c6.2,80-83.7,112.5-84.6,112.8ZM551.4,776.7l-16.6,12.7c-32.8,25-48.8,64.5-40.7,100.5,8.6,38.3,3.3,76.9-14.4,108.9,25.7-14.1,68-46.4,56.8-103.7l-2.1-10.8,10.2,4.1c1.6.7,34,14.4,45.3,60.6,7.2-16.6,16-44.6,12.5-75.4-3-26.2-12.8-38.4-24.2-52.5C569.3,809.9,559.2,797.4,551.4,776.7Z" transform="translate(-114.6 -55)"/>
      </g>
      <g>
        <path class="cls-2" d="M477.6,621.3h0Z" transform="translate(-114.6 -55)"/>
        <rect class="cls-3" x="363" y="560.3" width="124.7" height="11.92"/>
      </g>
    </g>
  </g>
</svg>
